<svg preserveAspectRatio="none" overflow="visible" style="display: block;" width="20" height="20" viewBox="0 0 20 20" fill="none" xmlns="http://www.w3.org/2000/svg">
<g id="analyze-icons">
<path id="Vector" d="M6.57143 6.57143V3.14286C6.57143 2.83975 6.57143 2.33163 6.57142 1.99996C6.99999 1.99996 7.41118 2 7.71429 2H16.8571C17.1602 2 17.5 1.99993 18 1.99993C18 2.49993 18 2.83975 18 3.14286V12.2857C18 12.5888 18 12.9999 18 13.4286C17.854 13.4286 17.1602 13.4286 16.8571 13.4286H13.4286M6.57143 6.57143H3.14286C2.83975 6.57143 2.49998 6.57143 2 6.57143C1.99998 7.07143 2 7.41118 2 7.71429V16.8571C2 17.1602 1.99999 17.4999 2.00001 17.9999C2.49999 17.9999 2.83975 18 3.14286 18H12.2857C12.5888 18 13 17.9999 13.4286 18C13.4286 17.9498 13.4286 17.1602 13.4286 16.8571V13.4286M6.57143 6.57143V9.42857M6.57143 6.57143H9.42857M13.4286 13.4286H10.5714M13.4286 13.4286V10.5714M10.5714 6.57143H13.4286V9.42857M6.57143 10.5714V13.4286H9.42857" stroke="#464C53" stroke-width="1.5"/>
</g>
</svg>
