<svg preserveAspectRatio="none" overflow="visible" style="display: block;" width="19.9999" height="19.7581" viewBox="0 0 19.9999 19.7581" fill="none" xmlns="http://www.w3.org/2000/svg">
<g id="Vector">
<path d="M12.6288 9.248L12.6245 18.48L18.0611 16.2564V11.5509L17.403 11.7238C17.265 11.7605 17.0655 11.4736 17.0379 11.3271C17.0082 11.1725 17.1589 10.8755 17.316 10.7901L18.042 10.3934L18.0802 9.07507C18.0866 8.8757 18.4963 8.62344 18.6852 8.63972C18.8975 8.65599 19.2032 8.91436 19.2032 9.189V16.3866C19.2032 16.8973 18.9463 17.0804 18.509 17.2574L12.4738 19.7169C12.1724 19.8003 11.89 19.7515 11.6098 19.6213L5.73379 16.8973L0.893716 18.95C0.494622 19.1188 0.0806679 18.6367 0 18.2603V4.55468C0 3.99929 0.267478 3.72058 0.749363 3.50494L5.34106 1.45835C5.61491 1.33628 5.99702 1.35459 6.2645 1.48886L10.6078 3.68396C10.8838 3.8223 11.0409 4.12542 10.9496 4.38786C10.8689 4.61978 10.4762 4.83746 10.1875 4.69098L6.39611 2.78476L6.39187 8.52172C6.39187 8.76585 6.00127 8.98556 5.80596 8.98963C5.54486 8.99166 5.21369 8.76585 5.22643 8.43628V2.72577L1.19304 4.5262V17.6235L5.22643 15.9004V12.2101C5.28162 11.9293 5.54273 11.677 5.8187 11.6852C6.07981 11.6933 6.33455 11.9436 6.39611 12.2182V15.9757L11.4612 18.3478L11.4803 9.19103C11.4803 8.93674 11.8624 8.71702 12.0535 8.71295C12.253 8.70889 12.6351 8.92046 12.633 9.24393L12.6288 9.248Z" fill="black"/>
<path d="M7.7356 10.9162C7.36623 11.616 6.55955 10.666 5.73165 10.7921C5.32406 10.8531 5.012 10.8186 4.90798 10.4646C4.81458 10.1472 5.05871 9.83595 5.43445 9.76882C6.12225 9.64472 6.76759 9.88274 7.40444 10.1676C7.71862 10.3079 7.90543 10.5948 7.7356 10.9162Z" fill="black"/>
<path d="M15.8024 12.9405C14.8492 13.4491 13.5797 14.0329 13.429 13.3148C13.3802 13.0808 13.5373 12.7614 13.7899 12.7045C15.1252 12.4095 15.4691 11.6466 15.9594 12.1776C16.108 12.3383 16.0804 12.792 15.8024 12.9384V12.9405Z" fill="black"/>
<path d="M10.6333 12.1143C10.8605 12.2567 10.9454 12.5639 10.8011 12.8141C10.6949 12.9993 10.3064 13.0908 10.0878 12.9525L8.85865 12.1733C8.69095 12.0675 8.8077 11.6179 8.9563 11.5182C9.17283 11.3738 9.48701 11.3921 9.72053 11.5386L10.6355 12.1143H10.6333Z" fill="black"/>
<path d="M2.63664 12.2773C2.44558 12.4054 2.02314 12.3037 1.91912 12.145C1.75141 11.8907 1.88515 11.5795 2.14414 11.4066L2.96992 10.8512C3.20343 10.6945 3.49002 10.7108 3.69381 10.9366C3.81906 11.0729 3.84029 11.4655 3.66197 11.5856L2.63664 12.2773Z" fill="black"/>
<path d="M16.1525 10.5195C15.9785 10.729 15.4286 10.7392 15.2461 10.5297C14.0806 9.18698 12.9768 7.88497 12.0342 6.39784C11.0917 4.9107 11.1702 3.17538 12.1892 1.77369C13.1381 0.467613 14.9064 -0.285108 16.5941 0.101425C18.0652 0.439132 19.167 1.43191 19.6488 2.55896C20.2857 4.05626 20.0225 5.4844 19.1309 6.72944C18.1862 8.04976 17.2033 9.26428 16.1546 10.5195H16.1525ZM15.6558 9.32735C16.6068 8.19623 17.405 7.2238 18.1947 6.13744C18.9419 5.11007 19.0714 3.89148 18.4664 2.77053C17.9463 1.80827 16.8998 1.09217 15.6452 1.10234C14.3906 1.11251 13.3504 1.86727 12.86 2.80308C12.2635 3.9403 12.4461 5.16704 13.1678 6.16795C13.9575 7.26245 14.7493 8.2654 15.6515 9.32531L15.6558 9.32735Z" fill="black"/>
<path d="M17.4221 4.22102C17.4221 5.14869 16.6366 5.89938 15.6708 5.89938C14.7049 5.89938 13.9194 5.14666 13.9194 4.22102C13.9194 3.29537 14.7049 2.54265 15.6708 2.54265C16.6366 2.54265 17.4221 3.29537 17.4221 4.22102ZM16.3373 4.20881C16.3373 3.85279 16.0359 3.56391 15.6644 3.56391C15.2929 3.56391 14.9914 3.85279 14.9914 4.20881C14.9914 4.56483 15.2929 4.85371 15.6644 4.85371C16.0359 4.85371 16.3373 4.56483 16.3373 4.20881Z" fill="black"/>
</g>
</svg>
