<svg width="24" height="24" viewBox="0 0 24 24" fill="none" xmlns="http://www.w3.org/2000/svg">
<g id="&#235;&#160;&#136;&#236;&#157;&#180;&#236;&#150;&#180;/&#235;&#170;&#168;&#235;&#139;&#172;">
<g id="tour-poi">
<g id="Property 1=1, state=default" clip-path="url(#clip0_0_1)">
<g id="bg">
<path id="Vector" d="M12.0005 0.956787C18.1111 0.957023 23.055 5.9414 23.0552 12.0789C23.0552 18.2165 18.1113 23.2017 12.0005 23.2019C5.88954 23.2019 0.944824 18.2167 0.944824 12.0789C0.945045 5.94125 5.88967 0.956787 12.0005 0.956787Z" fill="white" stroke="#1C54A8" stroke-width="1.66667"/>
</g>
<g id="icon">
<path id="Vector_2" d="M16.1758 6.92163H7.82007V18.5291H16.1758V6.92163Z" fill="#E8E8E8"/>
<path id="Vector_3" d="M16.176 18.666H7.82026C7.74483 18.666 7.68311 18.6042 7.68311 18.5288V6.92134C7.68311 6.8459 7.74483 6.78418 7.82026 6.78418H16.176C16.2515 6.78418 16.3132 6.8459 16.3132 6.92134V18.5288C16.3132 18.6042 16.2515 18.666 16.176 18.666ZM7.95742 18.3917H16.0389V7.05849H7.95742V18.3917Z" fill="#100209"/>
<path id="Vector_4" d="M16.4596 6.13745H7.47021V6.92198H16.4596V6.13745Z" fill="#0E69D5"/>
<path id="Vector_5" d="M16.4598 7.05884H7.47041C7.39497 7.05884 7.33325 6.99712 7.33325 6.92169V6.13716C7.33325 6.06172 7.39497 6 7.47041 6H16.4598C16.5353 6 16.597 6.06172 16.597 6.13716V6.92169C16.597 6.99712 16.5353 7.05884 16.4598 7.05884ZM7.60757 6.78453H16.3227V6.27431H7.60757V6.78453Z" fill="#100209"/>
<path id="Vector_6" d="M16.4596 13.6755H7.47021V14.4601H16.4596V13.6755Z" fill="#0E69D5"/>
<path id="Vector_7" d="M16.4598 14.5969H7.47041C7.39497 14.5969 7.33325 14.5352 7.33325 14.4598V13.6752C7.33325 13.5998 7.39497 13.5381 7.47041 13.5381H16.4598C16.5353 13.5381 16.597 13.5998 16.597 13.6752V14.4598C16.597 14.5352 16.5353 14.5969 16.4598 14.5969ZM7.60757 14.3226H16.3227V13.8124H7.60757V14.3226Z" fill="#100209"/>
<path id="Vector_8" d="M14.9935 7.95435H13.8674V9.88001H14.9935V7.95435Z" fill="#6DCDFC"/>
<path id="Vector_9" d="M14.9937 10.0176H13.8676C13.7922 10.0176 13.7305 9.95588 13.7305 9.88045V7.95478C13.7305 7.87935 13.7922 7.81763 13.8676 7.81763H14.9937C15.0691 7.81763 15.1309 7.87935 15.1309 7.95478V9.88045C15.1309 9.95588 15.0691 10.0176 14.9937 10.0176ZM14.0048 9.74329H14.8565V8.09194H14.0048V9.74329Z" fill="#100209"/>
<path id="Vector_10" d="M14.9937 9.05385H13.8676C13.7922 9.05385 13.7305 8.99213 13.7305 8.9167C13.7305 8.84126 13.7922 8.77954 13.8676 8.77954H14.9937C15.0691 8.77954 15.1309 8.84126 15.1309 8.9167C15.1309 8.99213 15.0691 9.05385 14.9937 9.05385Z" fill="#100209"/>
<path id="Vector_11" d="M12.5919 7.95435H11.4658V9.88001H12.5919V7.95435Z" fill="#6DCDFC"/>
<path id="Vector_12" d="M12.5919 10.0176H11.4658C11.3903 10.0176 11.3286 9.95588 11.3286 9.88045V7.95478C11.3286 7.87935 11.3903 7.81763 11.4658 7.81763H12.5919C12.6673 7.81763 12.729 7.87935 12.729 7.95478V9.88045C12.729 9.95588 12.6673 10.0176 12.5919 10.0176ZM11.6029 9.74329H12.4547V8.09194H11.6029V9.74329Z" fill="#100209"/>
<path id="Vector_13" d="M12.5919 9.05385H11.4658C11.3903 9.05385 11.3286 8.99213 11.3286 8.9167C11.3286 8.84126 11.3903 8.77954 11.4658 8.77954H12.5919C12.6673 8.77954 12.729 8.84126 12.729 8.9167C12.729 8.99213 12.6673 9.05385 12.5919 9.05385Z" fill="#100209"/>
<path id="Vector_14" d="M10.1903 7.95435H9.06421V9.88001H10.1903V7.95435Z" fill="#6DCDFC"/>
<path id="Vector_15" d="M10.1902 10.0176H9.06416C8.98872 10.0176 8.927 9.95588 8.927 9.88045V7.95478C8.927 7.87935 8.98872 7.81763 9.06416 7.81763H10.1902C10.2657 7.81763 10.3274 7.87935 10.3274 7.95478V9.88045C10.3274 9.95588 10.2657 10.0176 10.1902 10.0176ZM9.20132 9.74329H10.0531V8.09194H9.20132V9.74329Z" fill="#100209"/>
<path id="Vector_16" d="M10.1902 9.05385H9.06416C8.98872 9.05385 8.927 8.99213 8.927 8.9167C8.927 8.84126 8.98872 8.77954 9.06416 8.77954H10.1902C10.2657 8.77954 10.3274 8.84126 10.3274 8.9167C10.3274 8.99213 10.2657 9.05385 10.1902 9.05385Z" fill="#100209"/>
<path id="Vector_17" d="M14.9935 10.8936H13.8674V12.8192H14.9935V10.8936Z" fill="#6DCDFC"/>
<path id="Vector_18" d="M14.9937 12.9568H13.8676C13.7922 12.9568 13.7305 12.8951 13.7305 12.8197V10.894C13.7305 10.8186 13.7922 10.7568 13.8676 10.7568H14.9937C15.0691 10.7568 15.1309 10.8186 15.1309 10.894V12.8197C15.1309 12.8951 15.0691 12.9568 14.9937 12.9568ZM14.0048 12.6825H14.8565V11.0311H14.0048V12.6825Z" fill="#100209"/>
<path id="Vector_19" d="M14.9937 11.994H13.8676C13.7922 11.994 13.7305 11.9323 13.7305 11.8569C13.7305 11.7814 13.7922 11.7197 13.8676 11.7197H14.9937C15.0691 11.7197 15.1309 11.7814 15.1309 11.8569C15.1309 11.9323 15.0691 11.994 14.9937 11.994Z" fill="#100209"/>
<path id="Vector_20" d="M12.5919 10.8936H11.4658V12.8192H12.5919V10.8936Z" fill="#6DCDFC"/>
<path id="Vector_21" d="M12.5919 12.9568H11.4658C11.3903 12.9568 11.3286 12.8951 11.3286 12.8197V10.894C11.3286 10.8186 11.3903 10.7568 11.4658 10.7568H12.5919C12.6673 10.7568 12.729 10.8186 12.729 10.894V12.8197C12.729 12.8951 12.6673 12.9568 12.5919 12.9568ZM11.6029 12.6825H12.4547V11.0311H11.6029V12.6825Z" fill="#100209"/>
<path id="Vector_22" d="M12.5919 11.994H11.4658C11.3903 11.994 11.3286 11.9323 11.3286 11.8569C11.3286 11.7814 11.3903 11.7197 11.4658 11.7197H12.5919C12.6673 11.7197 12.729 11.7814 12.729 11.8569C12.729 11.9323 12.6673 11.994 12.5919 11.994Z" fill="#100209"/>
<path id="Vector_23" d="M10.1903 10.8936H9.06421V12.8192H10.1903V10.8936Z" fill="#6DCDFC"/>
<path id="Vector_24" d="M10.1902 12.9568H9.06416C8.98872 12.9568 8.927 12.8951 8.927 12.8197V10.894C8.927 10.8186 8.98872 10.7568 9.06416 10.7568H10.1902C10.2657 10.7568 10.3274 10.8186 10.3274 10.894V12.8197C10.3274 12.8951 10.2657 12.9568 10.1902 12.9568ZM9.20132 12.6825H10.0531V11.0311H9.20132V12.6825Z" fill="#100209"/>
<path id="Vector_25" d="M10.1902 11.994H9.06416C8.98872 11.994 8.927 11.9323 8.927 11.8569C8.927 11.7814 8.98872 11.7197 9.06416 11.7197H10.1902C10.2657 11.7197 10.3274 11.7814 10.3274 11.8569C10.3274 11.9323 10.2657 11.994 10.1902 11.994Z" fill="#100209"/>
<path id="Vector_26" d="M14.992 15.177H9.02148V18.5291H14.992V15.177Z" fill="white"/>
<path id="Vector_27" d="M14.9922 18.6667H9.02168C8.94624 18.6667 8.88452 18.605 8.88452 18.5295V15.1774C8.88452 15.102 8.94624 15.0403 9.02168 15.0403H14.9922C15.0677 15.0403 15.1294 15.102 15.1294 15.1774V18.5295C15.1294 18.605 15.0677 18.6667 14.9922 18.6667ZM9.15884 18.3924H14.8551V15.3146H9.15884V18.3924Z" fill="#100209"/>
<path id="Vector_28" opacity="0.7" d="M14.5629 15.533H9.49487V15.784H14.5629V15.533Z" fill="#E8E8E8"/>
</g>
</g>
</g>
</g>
<defs>
<clipPath id="clip0_0_1">
<rect width="24" height="24" fill="white"/>
</clipPath>
</defs>
</svg>
