<svg preserveAspectRatio="none" overflow="visible" style="display: block;" width="22" height="20" viewBox="0 0 22 20" fill="none" xmlns="http://www.w3.org/2000/svg">
<path id="Vector" d="M2.2 20C1.595 20 1.07727 19.794 0.6468 19.3821C0.216333 18.9702 0.000733333 18.4744 0 17.8947V6.31579C0 5.73684 0.2156 5.2414 0.6468 4.82947C1.078 4.41754 1.59573 4.21123 2.2 4.21053H6.6V2.10526C6.6 1.52632 6.8156 1.03088 7.2468 0.618947C7.678 0.207018 8.19573 0.000701754 8.8 0H13.2C13.805 0 14.3231 0.206316 14.7543 0.618947C15.1855 1.03158 15.4007 1.52702 15.4 2.10526V4.21053H19.8C20.405 4.21053 20.9231 4.41684 21.3543 4.82947C21.7855 5.2421 22.0007 5.73754 22 6.31579V17.8947C22 18.4737 21.7848 18.9695 21.3543 19.3821C20.9238 19.7947 20.4057 20.0007 19.8 20H2.2ZM8.8 4.21053H13.2V2.10526H8.8V4.21053ZM4.4 6.31579H2.2V17.8947H4.4V6.31579ZM15.4 17.8947V6.31579H6.6V17.8947H15.4ZM17.6 6.31579V17.8947H19.8V6.31579H17.6Z" fill="black"/>
</svg>
